<?xml version="1.0" encoding="UTF-8"?>
<svg version="1.1" viewBox="0 0 2048 2048" width="1280" height="1280" xmlns="http://www.w3.org/2000/svg">
<path transform="translate(539)" d="m0 0h602l26 6 24 8 20 10 14 9 13 10 13 12 12 13 13 18 12 22 9 24 4 16 2 12 1 11 1 24v76l-1 21-4 17-7 16-8 12-10 11-13 10-19 9-16 4-10 1-98 1-1 92h52l29 2 25 4 26 7 22 8 25 12 16 9 17 12 14 11 12 11 10 9 9 10 11 13 12 17 12 20 8 16 9 21 7 21 6 26 3 23 4 73 19 361 20 379 2 40v12l-195 1-9-1-1-3-17-260-28-430-4-63-3-24-5-20-7-19-12-23-11-16-12-14-11-11-17-13-14-9-15-8-21-8-24-6-16-2-38-1h-396l-22 1-20 3-22 6-19 8-17 9-17 12-14 12-9 9-9 11-10 14-9 16-8 18-5 15-4 17-3 25-10 149-11 161-12 176-9 134-9 129-1 5-196 1-6-1v-12l9-170 9-174 11-206 9-174 6-115 3-30 6-29 10-30 9-20 11-21 12-18 10-13 11-13 11-12 12-11 17-14 18-12 17-10 16-8 19-8 18-6 25-6 19-3 10-1 22-1h50v-93h-101l-14-2-15-5-15-8-11-9-9-9-9-13-6-12-5-17-1-6v-121l3-21 6-22 8-20 9-17 11-16 8-10 12-13 8-7 13-10 14-9 19-10 16-6 23-6zm115 372-1 1v92l1 1h371v-94z" fill="#B3B3B3"/>
<path transform="translate(171,1675)" d="m0 0h1326l54 1 20 3 21 7 19 10 14 10 12 11 11 12 10 15 8 16 6 16 4 20 1 10v23l-3 25-5 22-5 16-6 16-8 17-11 18-10 14-11 13-11 12-13 12-16 12-16 10-23 12-21 8-21 6-30 6h-1255l-30-6-22-6-25-10-21-11-19-13-11-9-10-9-16-16-13-17-7-10-11-19-8-17-7-19-6-23-4-25-1-11v-20l3-21 5-17 5-13 10-18 10-13 11-12 12-10 15-10 17-8 15-5 14-3 9-1z" fill="#B3B3B3"/>
<path transform="translate(618,745)" d="m0 0h441l16 3 13 5 11 6 13 10 9 9 10 15 7 16 3 12 2 23 14 218 28 431 5 76v13h-704v-14l11-162 9-132 10-150 7-100 11-163 3-38 4-16 7-16 8-11 9-10 9-8 15-9 14-5 7-2z" fill="#B3B3B3"/>
</svg>
