<?xml version="1.0" encoding="UTF-8"?>
<svg version="1.1" viewBox="0 0 2048 2048" width="1280" height="1280" xmlns="http://www.w3.org/2000/svg">
<path transform="translate(540)" d="m0 0h600l27 6 24 8 20 10 18 12 10 8 12 11 12 13 12 17 10 17 7 16 7 21 4 21 1 11 1 27v73l-1 21-3 14-6 15-9 15-11 12-13 10-19 9-16 4-10 1-98 1-1 92h52l29 2 25 4 26 7 22 8 25 12 16 9 17 12 14 11 12 11 10 9 9 10 11 13 12 17 12 20 8 16 9 21 7 21 6 26 3 22 5 93 26 494 13 246 1 21v12l65 1 22 4 19 7 17 9 14 10 10 9 9 9 11 15 8 14 8 20 5 23 1 13v66l-3 30-5 24-7 24-10 25-10 20-12 19-10 14-14 17-13 14h-2l-1 3-8 7-16 13-21 14-17 10-21 10-25 9-26 7-28 5-6 1h-1164l-40-7-22-6-25-9-21-10-22-13-18-13-13-11-12-11-11-11-7-8-14-18-10-15-9-16-8-16-10-25-6-20-6-29-2-17-2-45 1-31 2-18 5-21 8-19 8-14 10-13 12-13 11-9 15-10 19-9 16-5 17-3h65l4-70 37-703 4-79 3-30 6-29 10-30 9-20 11-21 12-18 10-13 11-13 11-12 3-3h2v-2l8-7 16-13 21-14 21-12 20-9 20-7 17-5 26-5 17-2 19-1h53v-93h-101l-14-2-15-5-15-8-11-9-9-9-9-13-6-12-5-17-1-6v-121l3-21 6-22 8-20 9-17 11-16 8-10 12-13 8-7 13-10 14-9 19-10 19-7 25-6zm10 93-16 3-13 5-13 7-13 11-7 7-10 15-7 16-4 18v104h744v-104l-3-16-6-15-8-13-10-12-14-11-10-6-19-7-13-2zm104 279-1 1v92l2 1h370v-94zm-141 186-20 1-23 4-20 6-21 9-17 10-19 14-22 22-12 16-9 15-10 21-7 21-3 14-3 25-35 665-9 173v9h116l1-1 15-256 12-206 14-241 4-62 4-24 6-19 7-17 9-17 10-14 8-10 9-10 14-13 17-12 18-10 16-7 19-6 21-4 10-1 41-1h356l53 1 24 3 22 6 20 8 18 10 13 9 10 8 12 11 10 11 11 15 9 15 9 19 7 21 4 19 2 18 22 379 22 375 1 3h116l-1-31-39-741-4-77-2-19-5-22-7-20-8-17-11-18-8-10-9-10-7-8-10-9-18-13-16-9-17-8-21-7-20-4-7-1-29-1zm126 186-23 1-17 4-14 6-12 8-12 11-9 11-7 12-6 16-3 21-5 82-10 174-7 120-9 155-6 100-6 105v13h692v-15l-22-378-16-275-5-86-4-20-7-16-7-11-11-12-8-7-11-7-13-6-14-4-6-1zm-493 931-14 1-12 4-11 8-7 8-5 10-2 7-1 10v45l2 27 5 24 6 18 12 25 10 15 8 10 9 10 14 14 12 9 14 9 19 10 21 8 21 5 15 2 13 1h1127l23-2 19-4 16-5 13-5 23-12 14-10 10-8 15-14 9-11 11-15 12-22 8-21 5-18 3-20 1-14v-55l-3-14-6-11-6-7-11-7-12-4-12-1z" fill="#008B95"/>
</svg>
